<svg baseProfile="tiny" height="48px" id="Layer_1" version="1.2" viewBox="0 0 30 30" width="48px" xmlns="http://www.w3.org/2000/svg">
<rect width="48" height="48" fill="#323238"/><g transform="translate(3, 2)"><path d="M8,19H5V9h3V19z M19,19h-3v-5.342c0-1.392-0.496-2.085-1.479-2.085c-0.779,0-1.273,0.388-1.521,1.165C13,14,13,19,13,19h-3   c0,0,0.04-9,0-10h2.368l0.183,2h0.062c0.615-1,1.598-1.678,2.946-1.678c1.025,0,1.854,0.285,2.487,1.001   C18.683,11.04,19,12.002,19,13.353V19z" fill="white"/></g><g transform="translate(3, 2)"><ellipse cx="6.5" cy="6.5" rx="1.55" ry="1.5" fill="white"/></g></svg>